<?xml version="1.0" encoding="UTF-8"?>
<svg id="_レイヤー_2" data-name="レイヤー 2" xmlns="http://www.w3.org/2000/svg" viewBox="0 0 401.9 387.88">
  <defs>
    <style>
      .cls-1 {
        fill: #231815;
        stroke-width: 0px;
      }
    </style>
  </defs>
  <g id="_レイヤー_3" data-name="レイヤー 3">
    <g>
      <path class="cls-1" d="M299.9,91.68c1.93,4.55,3.41,9.16,4.55,13.96.28,1.17,2.21,1.56,2.74.36,1.74-3.96,2.53-8.31,4.42-12.19,1.24-2.56,3.23-5.31,6.11-6.13,5.88-1.67,7.7,4.66,6.71,9.07-1.13,5.07-3.36,10.11-5.62,14.75-1.07,2.2-2.22,4.37-3.48,6.47-2.3,3.86-5.96,4.97-10.21,4.37-.72-.1-1.72.17-1.85,1.05-2.52,17.23-11.54,34.52-26.05,44.42-13.26,9.05-29,12.8-43.87,5.3-12.43-6.27-21.17-20.05-27.55-32.04-7.56-14.22-11.75-29.83-13.12-45.84-.16-1.91-3.16-1.93-3,0,1.28,15.01,4.91,29.67,11.46,43.27,3.32,6.89,7.34,13.42,11.91,19.55,4.14,5.53,8.47,11.24,14.3,15.04,25.92,16.92,57.9.29,70.84-25.02,3.78-7.39,6.75-15.64,7.96-23.89l-1.85,1.05c3.1.43,6.4.88,9.24-.73,3-1.7,4.59-5.31,6.16-8.22,3.58-6.67,9.25-16.71,8.05-24.58-.91-5.98-6.74-8.83-12.22-6.4-7.36,3.26-8.11,12.72-10.96,19.18l2.74.36c-1.2-5.05-2.83-9.9-4.85-14.68-.75-1.77-3.34-.24-2.59,1.51h0Z"/>
      <path class="cls-1" d="M191.19,99.96c-7.69,1.68-5.68,11.51-4.12,17.05,1.71,6.06,5.07,15.18,11.96,16.74,1.88.43,2.68-2.46.8-2.89-6.34-1.44-17.1-25.99-7.84-28.01,1.89-.41,1.09-3.3-.8-2.89h0Z"/>
      <path class="cls-1" d="M241.44,42.42c-1.69,9.49-3.01,18.98-.16,28.39,2.54,8.39,7.6,15.7,14.41,21.19,1.49,1.2,3.63-.91,2.12-2.12-6.43-5.18-11.23-11.92-13.64-19.86-2.71-8.93-1.45-17.78.16-26.79.34-1.89-2.55-2.7-2.89-.8h0Z"/>
      <path class="cls-1" d="M257.06,92.45c2.91.46,5.82.93,8.73,1.39,1.89.3,2.7-2.59.8-2.89-2.91-.46-5.82-.93-8.73-1.39-1.89-.3-2.7,2.59-.8,2.89h0Z"/>
      <path class="cls-1" d="M233.64,56.13c.71-5.37,4.58-9.84,9.7-11.5,1.83-.59,1.05-3.49-.8-2.89-6.52,2.1-11,7.63-11.9,14.39-.25,1.91,2.75,1.89,3,0h0Z"/>
      <path class="cls-1" d="M271.33,93.59c7.49.43,14.98.51,22.48.13,6.21-.31,12.85-.5,18.71-2.75,1.79-.68,1.01-3.58-.8-2.89-6.23,2.38-13.28,2.46-19.87,2.73s-13.69.17-20.53-.22c-1.93-.11-1.92,2.89,0,3h0Z"/>
      <path class="cls-1" d="M302.34,20.11c8.06,9.94,16.98,19.63,24.01,30.33,6.6,10.04,10.48,23.33,2.45,33.75-1.18,1.53,1.43,3.02,2.59,1.51,7.37-9.56,5.64-22.31.21-32.36-6.97-12.89-17.97-24.04-27.15-35.36-1.22-1.5-3.33.63-2.12,2.12h0Z"/>
      <path class="cls-1" d="M304.76,18.27c-8.77-10.71-30.05-19.22-41.6-7.73-1.37,1.36.75,3.49,2.12,2.12,5.16-5.14,14.11-4.89,20.69-3.16s12.33,5.59,16.67,10.89c1.22,1.49,3.34-.64,2.12-2.12h0Z"/>
      <path class="cls-1" d="M264.55,10.84c-5.62-1.8-9.29-6.79-14.72-8.98s-11.84-2.02-17.65-1.54c-11.61.95-23.21,4.46-32.76,11.27-8.58,6.11-15.39,14.6-18.75,24.64-4.24,12.68-2.86,26.43-3.16,39.56-.04,1.93,2.96,1.93,3,0,.27-11.74-.86-23.85,2.06-35.35s10.07-20.73,19.63-27.14,21.07-9.56,32.52-10.14c6.26-.31,12.44,0,17.8,3.6,3.77,2.54,6.81,5.57,11.23,6.99,1.84.59,2.63-2.3.8-2.89h0Z"/>
      <path class="cls-1" d="M233.32,55.04c-3.45-3.39-7.03-6.6-10.77-9.66-.86-.71-2.75-.37-2.56,1.06.66,5.08,1.11,10.3.77,15.42-.43,6.46-3.73,12.02-8.02,16.75-7.74,8.52-18.63,12.73-29.56,15.43-1.87.46-1.08,3.36.8,2.89,11.96-2.95,23.91-7.79,32-17.48,3.39-4.06,6.46-8.82,7.42-14.11,1.11-6.11.39-12.81-.41-18.91l-2.56,1.06c3.74,3.06,7.32,6.28,10.77,9.66,1.38,1.35,3.5-.77,2.12-2.12h0Z"/>
      <path class="cls-1" d="M177.69,74.43c.77,6.69-.4,13.05-3.61,18.97-.92,1.7,1.67,3.21,2.59,1.51,3.44-6.35,4.85-13.3,4.02-20.49-.22-1.9-3.22-1.92-3,0h0Z"/>
      <g>
        <path class="cls-1" d="M338.13,339.73c.15,1.56.65,3.03.87,4.57.56,3.93-2.97,5.45-6.11,6.55-.93.32-2.11.81-3.08.87-1.73.11-1.87-.62-2.53-2.04-1.06-2.27-2.12-4.55-3.19-6.82-.82-1.75-3.4-.23-2.59,1.51.97,2.07,1.93,4.14,2.9,6.2.58,1.23,1.01,2.96,2.16,3.81,2.04,1.51,5.68-.09,7.73-.85,2.51-.93,5.31-2.16,6.83-4.48,1.99-3.06.33-6.06.02-9.32-.18-1.91-3.18-1.92-3,0h0Z"/>
        <path class="cls-1" d="M329.44,319.04c5.31,2.81,14.16,10.41,9.71,17.18-3.51,5.34-12.03,8.72-18.23,8.63-5.15-.07-8.09-2.79-8.41-8-.19-3.05.65-6.09,2.1-8.76,3.17-5.82,9.55-8.9,15.67-10.56,1.86-.51,1.07-3.4-.8-2.89-8.56,2.33-16.93,7.46-19.35,16.55-1.94,7.3.61,16.23,9.13,16.67,7.93.41,19.47-3.59,23.15-11.27,3.92-8.21-4.93-16.67-11.45-20.13-1.7-.9-3.22,1.68-1.51,2.59h0Z"/>
        <path class="cls-1" d="M331.21,315.47c-.14-6.59-7.15-8.78-12.64-7.33-2.3.6-6.65,1.69-7.7,4.09-.57,1.29-.1,2.81.12,4.11.47,2.72.96,5.43,1.44,8.14.34,1.9,3.23,1.09,2.89-.8-.36-2.03-.72-4.07-1.08-6.1-.22-1.24-.45-2.08-.08-3.34.56-1.92,1.32-1.89,3.41-2.64,3.68-1.32,10.52-1.74,10.64,3.87.04,1.93,3.04,1.93,3,0h0Z"/>
        <path class="cls-1" d="M327.88,332.81c1.26-2.93,2.44-5.88,3.53-8.87.66-1.82-2.23-2.6-2.89-.8-1,2.75-2.08,5.46-3.23,8.15-.75,1.76,1.83,3.29,2.59,1.51h0Z"/>
        <path class="cls-1" d="M327.21,330.84c-2.16-1.26-4.31-2.51-6.47-3.77-1.67-.97-3.18,1.62-1.51,2.59,2.16,1.26,4.31,2.51,6.47,3.77,1.67.97,3.18-1.62,1.51-2.59h0Z"/>
      </g>
      <g>
        <path class="cls-1" d="M254.16,359.54h-35c-.98,0-1.7.96-1.45,1.9,1.44,5.38,5.44,14.04,1.96,19.18-2.3,3.38-6.04,3.76-9.72,3.79-7.14.06-14.28,0-21.42,0H48c-9.38,0-17.18-4.46-19.86-14.1-2.5-8.98-4.83-18.02-7.24-27.02-3.95-14.73-7.9-29.47-11.84-44.2l-4.06-15.15c-1.34-5.01-3.13-10.1,1.17-14.47,1.37-1.39-.68-3.39-2.12-2.12-5.7,5.01-4.2,11.51-2.5,17.85l6.11,22.78,15.02,56.05c1.82,6.78,3,13.07,8.23,18.26l-.23-1.82-.37.56c-.29.43-.26,1.08,0,1.51,1.37,2.28,5.19,3.17,7.58,4.09,2.11.81,4.22,1.16,6.46,1.23,1.14.03,2.29,0,3.43,0h161.13c.81,0,1.64.04,2.45,0,3-.14,4.8-1.44,7.48-2.29,3.71-1.18,8.47-.51,12.44-1.04,10.33-1.38,18.47-8.92,26.93-14.55,2.07-1.38,7.23-3.49,8.45-5.88,2.58-5.08-10.77-4.54-12.48-4.56-1.93-.02-1.93,2.98,0,3,2.38.03,8.91,1.35,9.91-.07-.5.72-2.09,1.39-2.8,1.87l-11.79,7.86c-3.49,2.33-6.93,4.79-10.5,7-5.07,3.13-12.19,2.98-17.97,3.06-3.8.05-6.21,2.48-10.11,2.62-1.22.04-2.46,0-3.68,0H50.93c-1.87,0-3.74.05-5.6,0-.37,0-.74.02-1.11,0-.9-.04-2.21-.15-3.08-.34-1.01-.22-6.93-3.97-7.89-2.54.37-.55.22-1.37-.23-1.82-4.54-4.5-5.52-9.68-7.08-15.51l-6.09-22.72c-4.68-17.48-9.37-34.96-14.05-52.45-1.71-6.37-5.53-14.86.36-20.03l-2.12-2.12c-6.76,6.86-2.01,17.15.12,25.09,3.62,13.51,7.24,27.01,10.86,40.52,3.13,11.68,6.26,23.35,9.39,35.03,2.73,10.17,8.79,19.01,20.47,19.42,18.43.64,36.99,0,55.42,0h86.03c8.21,0,16.42.11,24.63,0,5.28-.07,10.24-2,12.28-7.28,2.35-6.07-1.06-13.58-2.64-19.49l-1.45,1.9h35c1.93,0,1.93-3,0-3Z"/>
        <path class="cls-1" d="M179.15,267.76c16.7.78,18.48,21.32,21.82,33.79,4.28,15.99,8.57,31.98,12.85,47.97,1.06,3.97,2.13,7.95,3.19,11.92.17.64.79,1.1,1.45,1.1h.68c.98,0,1.7-.96,1.45-1.9-5.02-18.72-10.03-37.43-15.05-56.15-2.18-8.15-4.25-16.34-6.55-24.45-2.61-9.23-10.6-15.61-20.23-15.74-41.74-.54-83.53,0-125.28,0h-31.67c-6.09,0-12.69-.92-17.79,3.05-1.34,1.04.4,3.28,1.82,2.36,5.47-3.59,15.29-1.95,21.47-1.95h151.82c1.93,0,1.93-3,0-3H29.2c-7.25,0-18.44-1.86-24.86,2.36l1.82,2.36c4.01-3.12,10.61-2.17,15.43-2.17h153.83c9.11,0,17.46,3.18,20.53,12.92,2.05,6.52,3.55,13.26,5.32,19.86,5.48,20.45,10.96,40.91,16.44,61.36l1.45-1.9h-.68l1.45,1.1c-7.07-26.37-13.98-52.79-21.2-79.12-2.53-9.21-9.66-16.3-19.57-16.77-1.93-.09-1.93,2.91,0,3Z"/>
      </g>
      <path class="cls-1" d="M222.23,190.83c-9.78.58-19.48,1.93-29,4.25-7.09,1.72-14.66,3.48-19.35,9.54-4.96,6.41-7.54,15.22-10.71,22.6-4.18,9.73-8.36,19.46-12.53,29.18-.75,1.75,1.83,3.28,2.59,1.51,3.66-8.51,7.31-17.02,10.97-25.54,3.15-7.33,5.91-15.03,9.66-22.08,4.34-8.16,11.76-10.27,20.17-12.33,9.26-2.26,18.69-3.58,28.2-4.14,1.92-.11,1.93-3.11,0-3h0Z"/>
      <path class="cls-1" d="M236.27,193.22c18.52,21.89,48.94,9.69,69.66-1.37,1.7-.91.19-3.5-1.51-2.59-19.54,10.44-48.43,22.64-66.02,1.84-1.25-1.48-3.36.65-2.12,2.12h0Z"/>
      <path class="cls-1" d="M309.26,188.95c21.8,4.78,41.91,14.48,61.8,24.33,9.34,4.62,18.23,9.62,23.07,19.3,4.52,9.05,5.13,19.49,4.26,29.41-.17,1.92,2.83,1.91,3,0,.85-9.68.24-19.72-3.65-28.74-4.09-9.5-11.59-15.56-20.58-20.26-21.24-11.11-43.57-21.77-67.09-26.93-1.88-.41-2.69,2.48-.8,2.89h0Z"/>
      <g>
        <g>
          <path class="cls-1" d="M263.56,340.24c-2.3,2.11-3.91,4.33-5.16,7.19-.3.69-.26,1.67.54,2.05,2.49,1.18,4.36,1.38,6.98.47l-1.16-2.74c-3.91,2.4-6.46,5.57-8.05,9.88-.31.85.52,2,1.45,1.9,4.55-.51,8.96-1.38,13.35-2.68l-1.46-2.51c-2.79,3.06-4.75,6.39-6.06,10.31-.35,1.05.79,2.22,1.85,1.85,7.01-2.47,13.46-5.87,19.43-10.32,1.53-1.14.04-3.75-1.51-2.59-5.75,4.29-11.94,7.63-18.71,10.02l1.85,1.85c1.16-3.45,2.84-6.31,5.29-8.99.97-1.06.04-2.95-1.46-2.51-4.13,1.23-8.26,2.1-12.56,2.58l1.45,1.9c1.29-3.51,3.49-6.13,6.67-8.08,1.4-.86.51-3.32-1.16-2.74l-4.67-.17.54,2.05c1.13-2.58,2.62-4.68,4.69-6.58,1.43-1.31-.7-3.43-2.12-2.12h0Z"/>
          <path class="cls-1" d="M266.86,334.11c-2.19-.79-4.32-.55-6.59-.23-1.41.2-3.07.63-4.46.11-2.62-.99-2.62-3.88-1.39-6.08,3.05-5.48,11.28-6.06,15.77-2.21,1.46,1.25,3.59-.86,2.12-2.12-5.94-5.09-16.4-4.42-20.48,2.82-1.66,2.95-1.93,7.18.96,9.46,3.94,3.1,8.97-.39,13.27,1.15,1.82.65,2.6-2.25.8-2.89h0Z"/>
        </g>
        <path class="cls-1" d="M274.67,314.18c7.05,5.1,12.64,11.74,17.9,18.61,3.65,4.77,6.27,8.79,3.25,14.83-2.05,4.1-4.44,7.08-9.14,8.07-1.89.4-1.09,3.29.8,2.89,8.01-1.69,15.35-12.04,12.19-20.14-2.01-5.16-6.46-9.8-9.97-14-4.03-4.82-8.42-9.17-13.52-12.85-1.57-1.13-3.07,1.47-1.51,2.59h0Z"/>
        <path class="cls-1" d="M279.7,310.63c22.18,2.62,44.43-.26,65.59-7.2,1.83-.6,1.04-3.5-.8-2.89-20.94,6.87-42.86,9.69-64.8,7.1-1.91-.23-1.9,2.78,0,3h0Z"/>
        <path class="cls-1" d="M295.48,360.81c31.3,2.9,61.65-6.42,91.13-15.76,1.83-.58,1.05-3.48-.8-2.89-29.24,9.27-59.28,18.53-90.33,15.66-1.92-.18-1.91,2.82,0,3h0Z"/>
      </g>
      <path class="cls-1" d="M398.86,269.68c.42,21.76-2.46,43.32-8.6,64.2-.55,1.86,2.35,2.65,2.89.8,6.21-21.13,9.13-42.99,8.7-65-.04-1.93-3.04-1.93-3,0h0Z"/>
      <path class="cls-1" d="M293.65,155.25c3,7.78,5.44,15.81,5.61,24.2.04,1.93,3.04,1.93,3,0-.18-8.65-2.63-16.97-5.72-25-.69-1.78-3.59-1.01-2.89.8h0Z"/>
      <path class="cls-1" d="M240.84,180.85v3.69c0,1.93,3,1.93,3,0v-3.69c0-1.93-3-1.93-3,0h0Z"/>
      <path class="cls-1" d="M248.37,135.44c-5.57-.98-14.52.26-14,7.92.45,6.69,8.39,6.27,13.08,5.11l-.8-2.89c-3.6.94-8.41,3.32-6.73,7.92,1.99,5.46,8.51,4.2,12.65,2.62,1.79-.68,1.01-3.58-.8-2.89-2.02.77-5.66,2.51-7.65.8-4.19-3.59,1.66-5.11,3.33-5.55,1.87-.49,1.08-3.36-.8-2.89-2.42.6-7.32,1.8-8.93-1.14-1.11-2.01.53-4.57,2.21-5.56,2.28-1.34,5.18-.99,7.64-.56,1.89.33,2.7-2.56.8-2.89h0Z"/>
      <path class="cls-1" d="M263.8,111.39c1.93,0,1.93-3,0-3s-1.93,3,0,3h0Z"/>
      <path class="cls-1" d="M219.84,115.51c1.93,0,1.93-3,0-3s-1.93,3,0,3h0Z"/>
    </g>
  </g>
</svg>